<?xml version="1.0" standalone="no"?>
<!DOCTYPE svg PUBLIC "-//W3C//DTD SVG 20010904//EN"
 "http://www.w3.org/TR/2001/REC-SVG-20010904/DTD/svg10.dtd">
<svg version="1.0" xmlns="http://www.w3.org/2000/svg"
 width="64.000000pt" height="64.000000pt" viewBox="0 0 64.000000 64.000000"
 preserveAspectRatio="xMidYMid meet">

<g transform="translate(0.000000,64.000000) scale(0.100000,-0.100000)"
fill="#000000" stroke="none">
<path d="M92 568 c-17 -17 -17 -399 0 -416 15 -15 188 -17 188 -2 0 6 -37 10
-90 10 -53 0 -90 4 -90 10 0 6 37 10 90 10 53 0 90 4 90 10 0 6 -37 10 -90 10
l-90 0 0 140 0 140 220 0 220 0 0 -140 0 -140 -30 0 c-16 0 -30 -4 -30 -10 0
-5 14 -10 30 -10 17 0 30 -4 30 -10 0 -5 -13 -10 -30 -10 -16 0 -30 -4 -30
-10 0 -14 54 -12 68 2 17 17 17 399 0 416 -17 17 -439 17 -456 0z m136 -33 c7
-14 12 -28 12 -30 0 -3 -31 -5 -70 -5 l-70 0 0 30 c0 30 0 30 58 30 53 0 60
-2 70 -25z m70 0 c16 -34 16 -35 -11 -35 -16 0 -28 9 -35 25 -16 34 -16 35 11
35 16 0 28 -9 35 -25z m242 -5 l0 -30 -103 0 c-101 0 -104 1 -115 25 -7 14
-12 28 -12 30 0 3 52 5 115 5 l115 0 0 -30z"/>
<path d="M140 410 c0 -5 20 -10 45 -10 25 0 45 5 45 10 0 6 -20 10 -45 10 -25
0 -45 -4 -45 -10z"/>
<path d="M277 414 c-4 -4 -7 -34 -7 -66 0 -42 4 -60 14 -64 12 -5 13 -11 3
-31 -8 -18 -8 -29 1 -44 7 -10 12 -28 12 -38 0 -11 5 -23 10 -26 6 -3 10 -19
10 -34 0 -37 17 -51 60 -51 43 0 60 14 60 51 0 15 5 31 10 34 6 3 10 15 10 26
0 10 5 28 12 38 9 15 9 26 1 44 -10 21 -9 26 3 31 12 4 14 20 12 68 l-3 63
-101 3 c-55 1 -103 0 -107 -4z m193 -64 c0 -61 -18 -66 -50 -15 -12 19 -30 35
-40 35 -10 0 -28 -16 -40 -35 -32 -51 -50 -46 -50 15 l0 50 90 0 90 0 0 -50z
m-111 -86 c-10 -12 -9 -18 4 -32 16 -15 18 -15 34 0 13 14 14 20 4 32 -7 8
-11 29 -9 47 l3 33 38 -58 c49 -74 42 -86 -53 -86 -95 0 -102 12 -53 86 l38
58 3 -33 c2 -18 -2 -39 -9 -47z m31 -14 c0 -5 -4 -10 -10 -10 -5 0 -10 5 -10
10 0 6 5 10 10 10 6 0 10 -4 10 -10z m50 -80 c0 -6 -27 -10 -60 -10 -33 0 -60
4 -60 10 0 6 27 10 60 10 33 0 60 -4 60 -10z m-20 -60 c0 -28 -2 -30 -40 -30
-38 0 -40 2 -40 30 0 28 2 30 40 30 38 0 40 -2 40 -30z"/>
<path d="M140 370 c0 -5 20 -10 45 -10 25 0 45 5 45 10 0 6 -20 10 -45 10 -25
0 -45 -4 -45 -10z"/>
<path d="M140 330 c0 -5 20 -10 45 -10 25 0 45 5 45 10 0 6 -20 10 -45 10 -25
0 -45 -4 -45 -10z"/>
<path d="M140 290 c0 -5 20 -10 45 -10 25 0 45 5 45 10 0 6 -20 10 -45 10 -25
0 -45 -4 -45 -10z"/>
</g>
</svg>
