<?xml version="1.0" standalone="no"?>
<!DOCTYPE svg PUBLIC "-//W3C//DTD SVG 20010904//EN"
 "http://www.w3.org/TR/2001/REC-SVG-20010904/DTD/svg10.dtd">
<svg version="1.0" xmlns="http://www.w3.org/2000/svg"
 width="512.000000pt" height="512.000000pt" viewBox="0 0 512.000000 512.000000"
 preserveAspectRatio="xMidYMid meet">

<g transform="translate(0.000000,512.000000) scale(0.100000,-0.100000)"
fill="#000000" stroke="none">
<path d="M575 4624 c-88 -19 -185 -60 -258 -108 -91 -60 -198 -182 -245 -278
-77 -157 -73 -67 -70 -1395 l3 -1188 32 -68 c61 -128 191 -231 324 -259 57
-12 58 -12 64 -52 12 -72 72 -182 132 -242 67 -68 172 -121 258 -132 l60 -7
12 -63 c39 -196 179 -327 378 -353 53 -6 649 -9 1790 -7 l1710 3 56 23 c123
49 216 139 262 252 l22 55 3 1294 c2 855 -1 1313 -8 1350 -37 201 -216 351
-420 351 -35 0 -39 3 -45 33 -40 198 -183 336 -395 381 -22 5 -28 14 -38 63
-31 147 -135 265 -293 331 l-64 27 -1600 2 c-1390 1 -1609 0 -1670 -13z m1859
-530 c23 -91 155 -98 187 -9 l13 35 96 0 96 0 13 -35 c7 -19 22 -41 34 -47 17
-10 182 -14 693 -18 l670 -5 60 -30 c61 -31 109 -87 132 -154 l11 -31 -1592 0
c-1730 0 -1646 3 -1749 -55 -62 -34 -134 -108 -164 -167 -56 -110 -54 -66 -54
-1321 l0 -1160 -39 6 c-85 11 -158 67 -197 152 l-24 50 0 1245 0 1245 24 51
c29 63 85 120 145 148 45 21 60 21 711 26 506 4 670 8 687 18 12 6 27 28 34
47 l13 35 97 0 c96 0 97 0 103 -26z m2320 -505 c51 -14 128 -91 144 -145 9
-31 12 -247 12 -873 l0 -831 -222 167 c-123 92 -241 177 -263 190 -75 41 -202
46 -286 9 -20 -8 -162 -107 -315 -219 -154 -111 -284 -206 -290 -210 -6 -3
-245 236 -553 553 -623 643 -589 615 -751 615 -85 0 -100 -3 -146 -28 -37 -21
-766 -652 -982 -850 l-22 -21 2 745 3 744 22 42 c26 47 77 92 125 110 45 16
3464 18 3522 2z m-2471 -953 c21 -8 268 -256 676 -677 851 -879 810 -839 860
-839 56 0 101 45 101 102 0 42 -8 52 -182 233 l-67 70 226 165 c324 236 330
240 372 240 48 0 70 -14 376 -245 l266 -200 -3 -320 c-3 -306 -4 -322 -25
-360 -27 -51 -68 -90 -115 -109 -33 -14 -226 -16 -1773 -16 -1547 0 -1740 2
-1773 16 -47 19 -88 58 -115 109 -21 39 -22 52 -25 455 l-3 415 546 482 c301
265 557 484 568 486 42 8 58 7 90 -7z"/>
<path d="M3754 3175 c-337 -106 -413 -544 -131 -752 191 -140 467 -95 599 98
168 245 54 568 -231 655 -56 17 -182 17 -237 -1z m227 -213 c165 -86 155 -325
-16 -403 -143 -66 -315 47 -315 206 0 170 179 277 331 197z"/>
</g>
</svg>
